<?xml version="1.0" encoding="utf-8"?>
<!-- Generator: Adobe Illustrator 23.0.3, SVG Export Plug-In . SVG Version: 6.00 Build 0)  -->
<svg version="1.1" id="Layer_1" xmlns="http://www.w3.org/2000/svg" xmlns:xlink="http://www.w3.org/1999/xlink" x="0px" y="0px"
	 viewBox="0 0 434.6 33" style="enable-background:new 0 0 434.6 33;" xml:space="preserve">
<style type="text/css">
	.st0{fill:none;stroke:#000000;stroke-width:4;stroke-linecap:round;stroke-miterlimit:10;}
</style>
<line class="st0" x1="3.3" y1="2.6" x2="431.7" y2="2.6"/>
<line class="st0" x1="3.3" y1="29.7" x2="431.7" y2="29.7"/>
<line class="st0" x1="19.5" y1="29.7" x2="19.5" y2="2.6"/>
<line class="st0" x1="47.9" y1="29.7" x2="47.9" y2="2.6"/>
<line class="st0" x1="76.3" y1="29.7" x2="76.3" y2="2.6"/>
<line class="st0" x1="104.7" y1="29.7" x2="104.7" y2="2.6"/>
<line class="st0" x1="133.1" y1="29.7" x2="133.1" y2="2.6"/>
<line class="st0" x1="161.5" y1="29.7" x2="161.5" y2="2.6"/>
<line class="st0" x1="189.9" y1="29.7" x2="189.9" y2="2.6"/>
<line class="st0" x1="218.3" y1="29.7" x2="218.3" y2="2.6"/>
<line class="st0" x1="246.7" y1="29.7" x2="246.7" y2="2.6"/>
<line class="st0" x1="275.1" y1="29.7" x2="275.1" y2="2.6"/>
<line class="st0" x1="303.5" y1="29.7" x2="303.5" y2="2.6"/>
<line class="st0" x1="331.9" y1="29.7" x2="331.9" y2="2.6"/>
<line class="st0" x1="360.3" y1="29.7" x2="360.3" y2="2.6"/>
<line class="st0" x1="388.7" y1="29.7" x2="388.7" y2="2.6"/>
<line class="st0" x1="417.1" y1="29.7" x2="417.1" y2="2.6"/>
</svg>
