<svg xmlns="http://www.w3.org/2000/svg" viewBox="0 0 186.04 114"><defs><style>.cls-1{fill:none;stroke:#fff;stroke-miterlimit:10;stroke-width:6px;}.cls-2{fill:#fff;}</style></defs><title>sofa</title><g id="Layer_2" data-name="Layer 2"><g id="Layer_1-2" data-name="Layer 1"><path class="cls-1" d="M8.23,111H177.85a5.19,5.19,0,0,0,5.19-5.19l0-70.62A5.19,5.19,0,0,0,177.81,30h-15A6.77,6.77,0,0,0,156,36.77L156,66h3.62A5.38,5.38,0,0,1,165,71.38v7.24A5.38,5.38,0,0,1,159.66,84H156V96.65a5.36,5.36,0,0,1-5.35,5.35H35.39A5.36,5.36,0,0,1,30,96.65V84H26.42A5.38,5.38,0,0,1,21,78.62V71.38A5.38,5.38,0,0,1,26.42,66H30l0-29.23A6.77,6.77,0,0,0,23.23,30h-15A5.19,5.19,0,0,0,3,35.19l0,70.62A5.19,5.19,0,0,0,8.23,111Z"/><rect class="cls-1" x="21.04" y="66" width="144" height="18" rx="5.38"/><path class="cls-1" d="M30,66l0-54a9,9,0,0,1,9-9H84a9,9,0,0,1,9,9l0,54Z"/><path class="cls-1" d="M93,66l0-54a9,9,0,0,1,9-9H147a9,9,0,0,1,9,9l0,54Z"/><circle class="cls-2" cx="52.5" cy="25.5" r="4.5"/><circle class="cls-2" cx="70.5" cy="25.5" r="4.5"/><circle class="cls-2" cx="70.5" cy="43.5" r="4.5"/><circle class="cls-2" cx="52.5" cy="43.5" r="4.5"/><circle class="cls-2" cx="115.5" cy="25.5" r="4.5"/><circle class="cls-2" cx="133.5" cy="25.5" r="4.5"/><circle class="cls-2" cx="133.5" cy="43.5" r="4.5"/><circle class="cls-2" cx="115.5" cy="43.5" r="4.5"/></g></g></svg>